<?xml version="1.0" encoding="utf-8"?>
<!-- Generator: Adobe Illustrator 25.2.3, SVG Export Plug-In . SVG Version: 6.00 Build 0)  -->
<svg version="1.1" id="Layer_1" xmlns="http://www.w3.org/2000/svg" xmlns:xlink="http://www.w3.org/1999/xlink" x="0px" y="0px"
	 viewBox="0 0 1612 1792" style="enable-background:new 0 0 1612 1792;" xml:space="preserve">
<style type="text/css">
	.st0{fill:#222222;}
	.st1{fill:#F15A2B;}
	.st2{fill:#3B52A4;}
	.st3{fill:#EEEDEF;}
	.st4{font-family:'BebasNeueBold';}
	.st5{font-size:391.6501px;}
</style>
<g>
	<g>
		<path class="st0" d="M751.74,234.42c-83.43-0.06-166.87-0.24-250.3,0.01c-48.91,0.15-88.94-15.08-92.93-69.8
			c-4.42-60.72,35.07-87.29,89.55-86.23c186.42,3.63,373.75-17.16,559.14,13.02c249.88,40.68,418.54,267.67,403.34,536.94
			c-15.92,281.95-203.64,480.14-466.78,492.17c-39.66,1.81-79.43,0.88-119.14,1.79c-51.21,1.17-88.31-21.86-89.89-73.28
			c-1.57-51.02,31.43-78.58,84.74-76.9c15.87,0.5,31.8,0.31,47.67-0.25c227.2-8.01,370.66-154.37,370.31-377.64
			c-0.36-223.07-142.79-357.74-380.75-359.72C855.05,234.11,803.39,234.47,751.74,234.42z"/>
		<path class="st1" d="M696.42,815.68c-86.92,0.01-173.85-0.15-260.77,0.07c-53.7,0.14-97.34-16.05-94.3-78.46
			c2.53-51.98,38.85-73.3,89.4-73.21c181.75,0.31,363.5,0.22,545.25,0.05c50.52-0.05,86.38,21.06,88.17,73.98
			c2.13,63.05-41.88,77.73-95.12,77.62C878.17,815.53,787.3,815.67,696.42,815.68z"/>
		<path class="st1" d="M535.54,382.99c59.35,0,118.75-1.49,178.04,0.47c47.58,1.57,85.99,19.03,88.58,74.68
			c2.58,55.45-32.73,80.73-80.94,81.74c-130.51,2.71-261.14,1.95-391.69,0.07c-45.34-0.65-74.79-27.92-76.95-73.93
			c-2.52-53.81,31.91-79.66,81.2-81.81c67.13-2.93,134.49-0.73,201.75-0.73C535.54,383.31,535.54,383.15,535.54,382.99z"/>
		<path class="st1" d="M306.86,154.43c0.88,45.27-25.03,72.77-68.64,77.52c-45.15,4.91-76.82-21.42-81.32-65.68
			c-5.03-49.48,20.82-84.68,73.27-85.56C274.72,79.96,302.26,106.11,306.86,154.43z"/>
		<path class="st2" d="M989.81,542.14c-44.7-8.3-72.65-32.06-72.71-78.29c-0.06-46.38,27.46-75.57,71.9-75.36
			c48.76,0.22,81.05,27.58,77.33,81.72C1063.09,517.35,1032.4,536.91,989.81,542.14z"/>
		<path class="st2" d="M668.31,1047.57c-6.73,46.16-29.35,73.76-76.48,73.12c-46.45-0.63-74.86-28.5-75.03-71.87
			c-0.2-48.93,28.92-78.52,81.94-76.35C648.14,974.49,663.47,1007.17,668.31,1047.57z"/>
	</g>
	<g>
		<g>
			<path class="st1" d="M1178.19,1449.55c0,46.34-16.41,85.91-49.25,118.73c-32.82,32.82-72.39,49.23-118.71,49.23
				c-46.51,0-86.17-16.41-119-49.23c-32.82-32.82-49.23-72.4-49.23-118.73c0-46.33,16.45-85.95,49.36-118.85
				c32.91-32.91,72.54-49.37,118.87-49.37s85.89,16.41,118.71,49.24C1161.78,1363.4,1178.19,1403.05,1178.19,1449.55z
				 M1066.13,1449.55c0-15.55-5.48-28.8-16.41-39.75c-10.95-10.94-24.1-16.41-39.49-16.41c-15.39,0-28.6,5.52-39.62,16.54
				c-11.04,11.03-16.54,24.23-16.54,39.62c0,15.39,5.46,28.55,16.41,39.49c10.93,10.95,24.18,16.41,39.75,16.41
				c15.39,0,28.55-5.46,39.49-16.41C1060.65,1478.11,1066.13,1464.94,1066.13,1449.55z"/>
		</g>
		<path class="st1" d="M1079.93,1462.56c0.88,45.27-25.03,72.77-68.64,77.52c-45.15,4.91-76.82-21.42-81.32-65.68
			c-5.03-49.48,20.82-84.68,73.27-85.56C1047.8,1388.1,1075.33,1414.25,1079.93,1462.56z"/>
		<g>
			<path class="st3" d="M1009.18,1542.48c-48.5-0.09-48.64-0.12-37.3-49.14c4.89-21.14,9.61-39.77-6.94-60.84
				c-15.93-20.28-8.78-44.9,10.46-62.46c20.53-18.73,43.91-20.64,66.65-3.77c21.04,15.61,32.16,41.22,17.2,60.75
				c-21.32,27.85-13.66,53.2-5.01,78.78c10.92,32.3,0.71,41.73-30.44,36.8C1019.04,1541.84,1014.06,1542.49,1009.18,1542.48z"/>
		</g>
		<text transform="matrix(1 0 0 1 60.6465 1601.2373)"><tspan x="0" y="0" class="st4 st5">open</tspan><tspan x="614.1" y="0" class="st2 st4 st5">D      SM</tspan></text>
	</g>
</g>
</svg>
